<svg width="22" height="22" viewBox="0 0 22 22" fill="none" xmlns="http://www.w3.org/2000/svg">
<mask id="mask0_113_4048" style="mask-type:alpha" maskUnits="userSpaceOnUse" x="5" y="2" width="13" height="19">
<path d="M14.5 20.5C12.1 20.5 11.1525 18.4675 10.9858 17.1341V14.6341L6.48601 14.6341C5.48601 13.4675 3.98579 10.634 5.98567 8.63411C5.31899 5.96743 3.98593 1.13406 10.9858 2.13413C18.1858 1.33413 17.3192 6.13413 15.9859 8.63413C17.9859 11.4341 16.8192 13.8008 15.9859 14.6341C17.4859 15.1341 17.5 20.5 14.5 20.5Z" fill="#D9D9D9"/>
</mask>
<g mask="url(#mask0_113_4048)">
<rect x="11.1001" y="0.600098" width="11" height="8" fill="#CD0404"/>
<rect x="11.1001" y="0.600098" width="11" height="8" fill="#CD0404"/>
<rect x="11.1001" y="0.600098" width="11" height="8" fill="#CD0404"/>
<rect x="11.1001" y="8.80005" width="11" height="5.85" fill="#3D1766"/>
<rect x="11.1001" y="8.80005" width="11" height="5.85" fill="#3D1766"/>
<rect y="8.80005" width="10.9" height="6" fill="#6F1AB6"/>
<rect x="11.1001" y="14.8401" width="12" height="10" fill="#1A74B6"/>
<rect y="0.600098" width="10.9" height="8" fill="#FF0032"/>
</g>
</svg>
