<svg width="25" height="25" viewBox="0 0 25 25" fill="none" xmlns="http://www.w3.org/2000/svg">
<path d="M11.9858 3.13413C19.1858 2.33413 18.3192 7.13413 16.9859 9.63413M11.9858 3.13413V9.63413M11.9858 3.13413C4.98593 2.13406 6.31899 6.96743 6.98567 9.63411M16.9859 15.6341C18.4859 16.1341 18.5 21.5 15.5 21.5C13.1 21.5 12.1525 19.4675 11.9858 18.1341V15.6341M16.9859 15.6341H11.9858M16.9859 15.6341C17.8192 14.8008 18.9859 12.4341 16.9859 9.63413M11.9858 15.6341V9.63413M11.9858 15.6341L7.48601 15.6341C6.48601 14.4675 4.98579 11.634 6.98567 9.63411M16.9859 9.63413H11.9858M11.9858 9.63413L6.98567 9.63411" stroke="black"/>
</svg>
